<svg xmlns="http://www.w3.org/2000/svg" viewBox="0 0 1416.96 419.02">
  <g id="Ebene_2" data-name="Ebene 2">
    <g id="Ebene_1-2" data-name="Ebene 1">
      <g>
        <g>
          <path d="M172.23,72c-4.41-.41-9.56-6-9.22-9.65.22-2.41,5.17-6.6,7.58-6.43,2.11.15,8,9.22,7.55,12C177.53,71.34,174.69,71.79,172.23,72Z"/>
          <path d="M0,261.25C0,258.93,6.48,249.5,8.58,249a1.71,1.71,0,0,1,2.1,2.3c-1.4,4.38-3.22,8.59-6.63,11.9a3.34,3.34,0,0,1-3.24.54C-.51,263.5.24,262.12,0,261.25Z"/>
          <path d="M967,165.92l11.45.09c-.43,1-3.87-.18-1.77,2.59.35.47.2,1.29.42,1.9.89,2.56,2.12,5.62-1.39,6.71-2.72.84-4.35-2.18-5.29-4.15-1.43-3,.23-5,3.77-5.65C971.71,166,969,167.62,967,165.92Z"/>
          <path d="M812.55,194.28c-4.3-3.82-5.77-11.27-3.33-15.4.22-.37,1-.88,1.06-.81a5.22,5.22,0,0,1,1.58,1.74C812.85,182.19,813.17,189.55,812.55,194.28Z"/>
          <path d="M29.59,116.11c0,.66.71,1.73-.76,1.62s-3,.86-4.1-.68c-.28-.38-.7-.93-.6-1.28.8-2.82-2.78-5.58-.15-8.33a4,4,0,0,1,2.15-.73C27.6,109.72,29.66,112.53,29.59,116.11Z"/>
          <path d="M1339.28,115c-1.65,3.28-1.66,7.74-6.36,8.8-2.05-6.28-.42-9.37,5.11-9.69Z"/>
          <path d="M461,244.39c.56-3.66-1.57-6.75,1-9.52.65-.7,1-1.87,2.11-1.84,1.41,0,1,1.45,1.33,2.25C467.27,239.4,465.56,242,461,244.39Z"/>
          <path d="M1417,53.23c0,1.06-7.19,7-8.11,6.57-1.63-.81-2.25-2.36-1.13-3.94,2-2.74,5.35-2.81,8.19-3.86C1416.66,51.73,1416.94,52.52,1417,53.23Z"/>
          <path d="M462.57,293.94c.36-4-2.75-8.41,2.81-10.84C468.2,289.43,468,290.53,462.57,293.94Z"/>
          <path d="M1303.07,185.42c0,1.44-6.38,6.12-7.41,5.32a2.74,2.74,0,0,1-.43-3.55c1.1-2.13,2.2-4.7,5.27-4.18C1301.55,183.18,1303.17,183.62,1303.07,185.42Z"/>
          <path d="M733.24,213.11c-.07-3.91-2.39-7.91,2.61-9.93C738.49,208.32,738.12,210.11,733.24,213.11Z"/>
          <path d="M611.55,214a46.64,46.64,0,0,1-1.46-5.33c-.34-2.2,1.39-3.49,3-3.8s1.52,1.61,1.78,2.83C615.53,210.63,614.9,212.87,611.55,214Z"/>
          <path d="M1237.06,359.47c-.14,1.72-1.23,2.39-3,2.47-2.51.12-2.52-2.15-2.75-3.43s.73-3.54,2.22-3.38C1235.53,355.34,1237,357,1237.06,359.47Z"/>
          <path d="M868.68,233.79c1,2.34.26,4.34.36,6.32.07,1.51-.67,2.87-2.15,2.62-1.24-.2-2-2-1.74-3.11C865.59,237.51,865.7,235,868.68,233.79Z"/>
          <path d="M1000.62,188.89a4.89,4.89,0,0,1-1.1-6.08c.42-.9.53-2.67,2.13-2a2.07,2.07,0,0,1,.78,3C1001.69,185.4,1001.24,187.11,1000.62,188.89Z"/>
          <path d="M343.22,222.48c0-3.33-1.37-6.2,2.15-7.79C347.48,217.65,347.34,220.07,343.22,222.48Z"/>
          <path d="M336.73,140.7c.45,2.12,2.58,4.17-.29,6-.59.39-1.61.39-1.54-.24C335.11,144.59,332.58,142,336.73,140.7Z"/>
          <path d="M180.35,76.91c-.4-2.59-1.35-5.15,1.92-6.65C183.58,74.48,183.58,74.48,180.35,76.91Z"/>
          <path d="M383,254.14c.75-2.19-2.23-3.9.33-5.8,1.3-1,1.58.19,2.1,1C387,251.8,385.45,252.85,383,254.14Z"/>
          <path d="M128.07,163.8c-.18,1.07-.9,2.08-1.8,1.93-1.42-.22-1.73-1.81-2.12-3a1.33,1.33,0,0,1,1.4-1.62C127,161.29,127.67,162.48,128.07,163.8Z"/>
          <path d="M1339.28,115l-1.25-.89c2.73-.47,2.59-4.17,6-4.86C1343.84,112.6,1341.9,114,1339.28,115Z"/>
          <path d="M1176.79,164.42c.23,2.15,1.36,4.17-1.22,5.58C1174.57,168,1172.77,166.07,1176.79,164.42Z"/>
          <path d="M1293.92,183.75c-1.19-1.32-3.1-.21-4.44-1.29,2.35-2,4.94-.68,7.4-.68C1296,182.63,1295.37,183.78,1293.92,183.75Z"/>
          <path d="M1244.9,368.78l0-1.73h5.92C1249,368.37,1247.16,369.24,1244.9,368.78Z"/>
          <path d="M1398.07,69c-2.1-3.43,1.59-2.9,2.78-4.09C1403.26,68.5,1399.39,67.86,1398.07,69Z"/>
          <path d="M1180.84,135.73c-1-.73-2.12-1.33-1.75-2.87,1.21.68,3.44-.89,3.79,1.5C1183,135.47,1181.85,135.73,1180.84,135.73Z"/>
          <path d="M1076.29,155c1.12.28.94,1.21.74,1.89a1.89,1.89,0,0,1-1.19,1.2c-1.16.14-1-.93-1-1.62A1.36,1.36,0,0,1,1076.29,155Z"/>
          <path d="M918.93,159.71l.13,2.09a5.61,5.61,0,0,1-3.71-.26C916.18,160.14,917.79,160.38,918.93,159.71Z"/>
          <path d="M1290,156.64a1.28,1.28,0,0,1-1,1.5c-1.16.32-.65-.77-.75-1.16-.16-.61,0-1.36.93-1.21C1289.59,155.83,1290.1,156,1290,156.64Z"/>
          <path d="M1300,255.77l.06-1.86c.91-.16,2.43-.25,2.43.45C1302.46,255.47,1301.26,256.07,1300,255.77Z"/>
          <path d="M126.83,218.43c-.38,1.1-.68,2.27-1.87,2.19-1.44-.09-.82-1.49-1.09-2.32-.41-1.27.28-2.13,1.35-1.9C125.9,216.54,126.34,217.77,126.83,218.43Z"/>
          <path d="M195,263.05c.06,1.14-.39,1.85-1.25,2.07-1.37.36-1.64-.64-1.75-1.69-.1-.88.05-1.72,1.05-1.94C194.42,261.2,194.35,262.67,195,263.05Z"/>
        </g>
        <path d="M180.08,208c-1.82,1.83-2.24,3.49-.45,5.87,3.29,4.36,5.17,9.35,6.68,14.68,2,7.16,5.46,13.67,11.51,18.71,5.09,4.25,8.46,10.12,12.19,15.59,2.89,4.24,5.88,8.4,9.83,11.77,2.34,2,4.4,2.27,6.76-.1,5.5-5.54,10.91-11.21,16.78-16.36,7.17-6.27,14.09-12.76,23.23-16.65,5-2.1,8.7-7.06,13-10.7,1.52-1.28,3.06-2.53,4.67-3.68,1-.7,2.07-2.29,3.35-.83,1,1.16-.13,2.84-.76,3.55-3,3.34-6.18,6.47-9.43,9.55-11.2,10.62-23,20.54-34.24,31.16-4.54,4.31-5.79,10.44-10.64,14.59a349.05,349.05,0,0,1-28.81,22.52,38.84,38.84,0,0,0-3.6,2.61C180.37,327.56,166,349,152.94,371.47c-2.48,4.27-3.16,8.8-3,13.68.26,6.27-.39,12.57,1.61,20.14-5-4.2-5-8.88-5.48-13.11a238.75,238.75,0,0,0-5.05-27.45c-.8-3.29-3.18-5.35-5.52-7.44s-5.43-4.19-6.66-7.33C126.66,344.3,122,342,116.76,341,100.59,338,89.87,327.81,83,313.9c-5.25-10.61-15.11-13.56-24.32-17.9-3.92-1.85-8.16-3.09-10.7-6.81s-6.7-2.41-10-3.06c-8.46-1.67-16.46-3.64-22.43-10.46-.94-1.07-1.69-2.25-1.45-3.46.84-4.18-5.47-7.49-1.39-12-5.45-5.31.68-8.49,2.3-12.49.24-.6.93-1.14.92-1.69-.33-11.68,7.61-20.9,9.47-32,1.75-10.36,6.83-19.82,8.69-30.12,1.54-8.55,3.48-16.95,5.77-25.33,1.41-5.18-1.06-10.41-2-15.6-.71-4.07-3.14-8-.57-12.36.56-.95-.12-2.91-.71-4.19-2-4.18-3.67-8.44-3.77-13.1-.14-6-5.62-7.48-9.08-10.39-4.15-3.5-8.48-6.38-10.11-12.07-.71-2.45-.4-3.12,1.9-2.92,5.44.48,11-1,16.37.76a5.77,5.77,0,0,0,4.85-.56c8.52-5.6,18.49-4.85,27.91-6.17,8.17-1.14,15.74-2.56,22.92-7.41A402.78,402.78,0,0,1,130,50c5.65-2.88,9.61-7.44,13.6-12.12,5.14-6,11.39-11.11,15.14-18.26,1.37-2.61,3.13-5.25,1.95-8.4-1.72-4.58-.52-8.07,3.63-10.54,3.88-2.31,5.53,1.6,8.05,3a11.31,11.31,0,0,1,1.26,1c.69-1.44.53-3.71,2.51-3.72,1.82,0,1.74,2,2.18,3.35,2.05,6.28,4.9,11.52,10.87,15.56,7.12,4.8,10.25,13.64,16.64,19.58,4.95,4.61,8.78,10.39,13.38,15.39,3.84,4.19,7,8.78,8.4,14.23,2.76,10.91,10.68,18.49,17.06,27,8.66,11.55,19.11,21.72,26.6,34.19,1.15,1.92,3.09,3.52,2.65,6.57-8-7.51-16.78-13.77-23.46-22.21-2.26-2.87-5.63-3.29-8.4-5-4.71-2.85-9.63-5.81-12.71-10.32C221,87.13,208.91,81.76,195.08,78.83c-5.32-1.13-8.78-4-10.66-10s-6.34-11.37-9.9-16.85c-1.58-2.42-3.89-.86-5.15.36-4.15,4.06-10.64,5.24-13.41,11-.38.8-1.89,1.14-2.94,1.54a34.44,34.44,0,0,0-14.14,9.65A15.8,15.8,0,0,1,128.21,80a27.29,27.29,0,0,0-8.85,2.62c-1.75.84-4.66,5.55-6.84,0a7.07,7.07,0,0,0-2.24.69c-7.49,4.39-15.49,7.83-22.92,12.38-3,1.85-2.53,3.9-1.92,6.26a133.2,133.2,0,0,0,8.19,21.92c2.17,4.72,4.59,9.32,5.52,14.55a7,7,0,0,0,2.36,4.24c8.38,5.77,14,14.12,20.37,21.69a8.44,8.44,0,0,0,5.31,3c7.13,1.26,13.43.63,18-6.22,4.88-7.3,8.76-7.13,14.48,0a19.91,19.91,0,0,0,3.24,3.7c6.28,4.68,11.2,10.13,12.5,18.29.42,2.63,1.69,2.92,4.86,3,1.09,0,1.58,1.09,1.71,2.11.76,6.2,2.21,12.39.09,18.6A1.71,1.71,0,0,0,180.08,208Zm-7.23-28.27c-.82-2.25-1.72-4.45-3.6-6.06-1.71-1.46-2.16-.46-2.22,1.2-2.93.19-4.34-2.07-6.09-3.77-5.19-5.06-6.75-5.23-12.65-1.27-5,3.38-10,6.9-15.15,10.13-1.63,1-1.72,2.29-2.22,3.89-2.49,7.89,2.16,14.66,2.83,21.94.74,7.92,4.24,12.79,10.7,16.74,2.82,1.73,4.45,1.38,6.4-.59,2.69-2.71,5.08-5.8,8.06-8.13,6-4.68,12.15-9.08,17.41-14.67,2-2.14,4-5.23,2.27-6.84-2.9-2.72-3.23-6.16-4.75-9.24Zm-55.67,8.87c.69-7.9-1-15.1-5.89-21.49-6.77-8.86-15.43-14.57-26.76-14-7.74.37-15.48,1.43-23.27,1.69-2.33.08-3.82.45-4.34,3.47C55.07,169,52,179.41,46.42,189c-3.36,5.77-4.05,12.48-3.27,19.17,1.81,15.43,1.7,31,3.59,46.45.7,5.75,1.93,9.22,7.2,11.91,4.11,2.11,8.82,5.15,10.66,9s3.93,5.65,7.78,6a6.55,6.55,0,0,1,4.31,2.16,14.1,14.1,0,0,0,8.89,4.09c8,.81,15.34,4.17,23,6.34a13.1,13.1,0,0,1,7.86,6.36,41.34,41.34,0,0,0,7.13,8.25c3.24,3.13,8.14,3.26,11-.09,6-6.93,10.29-15.07,11.24-24.16.89-8.45-.44-17.11.29-25.58,1.56-18-10.3-30.25-18.15-44.22a6.91,6.91,0,0,0-4.82-3.29c-5.39-.73-8.15-4.35-6.91-10A58.57,58.57,0,0,0,117.18,188.61Zm56,131.66a230.61,230.61,0,0,1,37.06-31.38c2.33-1.6,1.83-3.37,1.27-5.58-2.34-9.27-8.45-16.25-14-23.58-2.93-3.88-4.84-4.13-8.29-.52-10.14,10.59-20.45,21.05-27.36,34.27-1,1.84-.22,2.82.51,3.89C167.13,304.25,171.51,311.28,173.2,320.27Zm.14-103.14c-14.89,19.94-18.3,42.39-14.67,65.78,10.52-6,17.34-16,24.91-25.41,4.72-5.89,4.19-11.12,1.84-17.35C182.35,232,176.71,225.26,173.34,217.13ZM75.42,113.8c-.49,1.61-1.13,2.69-1.47,4-2.62,9.92-5.86,19.58-13.93,26.67-.81.71-1.38,1.47-.67,2.55a2.43,2.43,0,0,0,3.14.78c9.63-4.22,20.18-4.14,30.49-6.4C88.45,131.37,83.91,121.74,75.42,113.8Z"/>
        <path d="M1244.9,368.78c-5.08.71-10.14,1.52-15.23,2.06-1.77.19-1.62,1.26-1.77,2.36-.62,4.56-2.17,9.23-1.67,13.67,1,8.93-1.1,17.3-2.86,25.8-.42,2-.17,4.28-2.33,6.35,0-4.28-.24-8.27,0-12.23.84-11.87-2.21-23.25-4-34.79-.19-1.14-.47-1.56-1.84-1.59-7-.14-8.59-.82-17.74-6.92,2.82.22,4.59,0,6.13.54,5.81,2,10.27-1.25,14.94-3.64,2.84-1.45,1.78-4.34,1.37-6.26-2-9.42-.53-18.89-.79-28.32-.1-3.33-.06-6.78-1.39-9.7-3-6.59-3.17-14-6.18-20.49a5.26,5.26,0,0,1,.61-5.16c4.63-7.74,2.69-16.92,5.77-25,.31-.81.43-2.11-.9-2.45a2.55,2.55,0,0,0-1.87.26c-1.93,1.36.56,1.42.67,2.14.42,2.76-1,5.18-2.38,7.19-1.06,1.53-2.89.33-3.28-1.34a6.45,6.45,0,0,1,.73-5.34c-5.35,2.26-9.63-.21-14.13-2-8.28-3.34-17-2.41-25.53-1.58-9.16.89-18.06-.54-27.08-1L1144,260c5.7-1.25,11.37-2.7,17.12-3.72,12.11-2.15,24.06-5,36-7.73,5.52-1.25,10.84-2.06,15.38-5.78s5.72-8.47,3-13.9c-2.9-5.83-5.82-11.65-8.55-17.57a7.72,7.72,0,0,0-4.5-4.28c-5-1.81-10-3.64-15.37-3.07-2.52.27-4.9-.1-6.35-2-5.86-7.89-14.85-9.32-23.36-11.94-2.49-.76-6.77.75-6.61-4.47,0-1-2.1-.75-3.13-.52-2,.43-4,1.27-5.89.59-8.42-3.08-16.2-.66-23.94,2.43-1.21.48-2.49,1.71-3.44.14a3,3,0,0,1,.87-4c2.46-1.88,5-3.71,8.18-6.12-5.81.14-10.46,2.19-15.11,3.31-5.11,1.24-10.65,2-15.27,5.05-.84.56-1.92,1.15-2.65.38a2.32,2.32,0,0,1,.18-3.17c1.82-2.14,3.6-4.33,5.59-6.31,3.5-3.46,6-7.38,6.75-12.34a15.51,15.51,0,0,1,1.1-3.22c.37-.94,1-2,2-1.84,1.41.15.82,1.51,1,2.39.34,1.61-1,4.5.91,4.64,2.92.2,5.12,2.73,8.84,1.14,5.84-2.51,8.16-6.65,9.16-12.28.75-4.23,1.56-8.44,2.37-12.65,1.19-6.17-.14-12.07-5.31-15.39-8-5.15-14.65-11.73-21.74-17.86-9.95-8.62-21.69-14.68-32.22-22.47a121.62,121.62,0,0,0-18.45-10.72A22.51,22.51,0,0,1,1039.92,66c5.15,2.15,9.15,3.54,12.91,5.43,9.21,4.63,18,10.4,27.56,14s18.74,8.43,28.19,12.42a123.84,123.84,0,0,1,16.58,8.67c7.36,4.5,15.35,8.45,24.15,10,1.8.31,4.06.06,5.32,1.07,7.57,6.05,18.28,7.06,24.46,15.29-.37,1.54.79,2.14,1.75,2.87-6.78,0-13.51.53-20.34-.65s-11.69,3.44-16,8c-1.84,2,.54,4.37.54,6.62,0,8.63,5,14.66,11.23,19.54,4,3.14,5.38-2.32,8-3.85.69-.41.89-1.65,1.44-2.77a7.54,7.54,0,0,1,2.36,4.91c.65,6.1,5.61,9.5,8.8,14a2.52,2.52,0,0,0,2.22.85c7.92-3.29,12.75,3.36,18.6,6.09,3,1.39,4,1.07,6.21-.78,5.78-4.94,11.49-9.68,14.34-17.19,1.47-3.86,1.87-7.9,3.25-11.71a6.64,6.64,0,0,1,1.27-1.59c2.79,2.78.93,6.39,2,9.51a19.74,19.74,0,0,0,5,8.26,24.46,24.46,0,0,1,4.31,4.77c1.69,2.69,3.43,4.49,7.46,4.2,2.77-.2,6.09,1.63,8.65,4,4.91,4.54,7,4,10.81-1.26,2.86-3.93,5.91-7.5,10.67-9.83,3.32-1.62,5.11-6,5.27-10.1.08-2.28.92-4.32,2.86-4.63,1.75-.28,1.72,2.28,2.46,3.6,4.61,8.34,8.26,8.48,14.17.73,5.21-6.85,6.59-14.39,4.82-22.71a44.12,44.12,0,0,1-.39-6.66c-1.88.43-3.73,1.61-5.41-.44-1.08-1.33-2.83-1-4.2-.47-7,2.68-14.43,1.58-21.62,2.42-5.56.65-11.31,2.52-17.33,1,.47-2.46,2.49-2.88,4-3.42,17.5-6.31,33.25-15.94,49.2-25.28a126.21,126.21,0,0,1,22.67-10.12,26.77,26.77,0,0,0,12.42-9c1.13-1.38,1.54-5.55,5.14-2.23.24.22,3-1.8,4.17-3.16,2.79-3.32,6.42-5.09,10.39-6.43,12.9-4.35,24.32-12,37.09-16.6,1.24-.45,4.19-3.25,3.45,1.5-1.19,1.19-4.88.66-2.78,4.09-7.6,5.48-16.59,8.64-23.89,14.74a271.14,271.14,0,0,1-34.9,24.71,29.57,29.57,0,0,0-10.38,11.11c-5,8.83-10.27,17.37-12.38,27.57-1,4.91,1.3,7.63,4.3,10.13,3.16,2.63,5.46,0,7.56-2.18a14.08,14.08,0,0,1,6.22-4.2c2.56,9,7.12,16.59,14.51,22.34a16.69,16.69,0,0,1,3.64,4c.63,1,.58,2.71-1.22,2.3-8-1.83-15,1.48-22.36,3.57a38.45,38.45,0,0,1-6.65,1.71c-3.12.31-6,.86-9.11-1.85-2.71-2.36-7.28-1.57-11.08-1.67a43.81,43.81,0,0,0-5.45.5c-2.46,0-5.05-1.34-7.4.68,1.34,1.08,3.25,0,4.44,1.29-4.66,6.49-11.52,8.05-18.93,9.32-5.54,1-10.82,3.44-14.3,8.58-1.87,2.76-3.92,3.85-6.56.1-2.49-3.52-10.1-2.33-12,1.84-4.39,9.65-8.72,19.37-9.1,30.25a15.8,15.8,0,0,1-.12,2.49c-1.36,7-1.21,7.81,5.5,10.26a51.75,51.75,0,0,0,20.55,3.46c11.37-.6,22.6,0,33.65,3,2.37.65,4.93.58,7.41.84l-.06,1.86c-13.09-.89-26.11,2-39.24.53-6.67-.72-13,1.34-19.32,3.49-1.68.58-3.34,1.46-5.26,1.11-4.69-.84-6.67.67-6.4,5.89.51,9.75,1,19.45,2,29.19,1.22,12.26,1.9,24.59-1.87,37-2.68,8.81-.83,18.5-.6,27.79.07,3.06,3.09,3.88,5.35,4.53a88.84,88.84,0,0,0,10.23,1.77Z"/>
        <path d="M734.05,193.18c-2.54,13.16-8.93,24.3-9.23,37.3-.15,7-3.18,13.77-6.94,19.63C710.29,262,707.06,275.17,704,288.56c-1.55,6.83-3.7,13.46-7.93,19.63a35.22,35.22,0,0,1,0-4.48,51.16,51.16,0,0,1,1.16-5.27c.39-1.59.83-3.16,1.23-4.74.9-3.52,1.93-7,1.57-10.7-.91-9.41,2.37-18.15,5.35-26.6,4.64-13.19,6.5-26.92,9.92-40.29,3.35-13.09,2.46-26.36,4.61-39.4,1.63-9.89,3-19.83,5.72-29.5.83-3-.93-6.37,2-9.56,2.35,10.79,5.94,20.71,9.43,30.62,4.06,11.53,8.4,23,13.22,34.21,3.54,8.21,10,15.11,12.93,23.82.67,2,1.47,4,2.38,6.43,10.47-12.68,14.27-28.46,19.81-43s14.32-27.82,17.85-43.44a5.27,5.27,0,0,1,1.68,4q.57,18.21,1.18,36.42c0,1.15-.26,2.49.23,3.41,5.8,11,8.41,23.13,10.55,35.05,3.07,17,9.31,33.45,10.08,50.94.11,2.38,1.53,4.69.87,7.33-7.7-11-9.56-24.29-13.78-36.55-4.66-13.59-13.15-24.78-20.43-36.77-1-1.66-2.21-3.21-3.34-4.86a157.62,157.62,0,0,1-9.25,22.18c-5.41,10.38-7.88,21.68-10.07,33-.41,2.13-1.16,4.23-3.29,4.45-2.55.27-1.47-2.46-2-3.77a146.6,146.6,0,0,0-12.55-23.65c-6.46-9.66-10.93-20.88-14.1-32.32A44.78,44.78,0,0,0,734.05,193.18Z"/>
        <path d="M567.3,291.42c-8.36,4.15-16.17,5.59-23.94,6.39C522,300,501.36,305.64,481,312c-6,1.88-11.65,5.13-17.36,8-3.29,1.64-6,3.67-5.7,8.25.2,3.3-3.31,4.72-5.54,6.48-1.4,1.11-2.31-.34-2.31-2,0-2.15-1-4.49-.73-6.26,1.22-8.22-1.39-16-2.45-23.85-1.27-9.31.73-18.66-.92-27.83-1.3-7.26-.84-14.63-3.18-21.95-1.84-5.73-3.57-12.53,1.49-18.82,3.31-4.11,2.29-10.19,3.09-15.4,1.88-12.1,5.4-23.86,7.07-36,1.25-9.1-.33-17.88-.82-26.78-.39-7.07-1.74-14.08-2.51-21.13-.38-3.4,2.48-6.46,1.26-10.09,3.05,4.2,3.3,9.28,4.39,14,3,12.83,5.89,25.71,5.33,39a8.06,8.06,0,0,0,.35,2.94c6.53,18.43,4.39,36.14-3.29,53.85-3.15,7.27-2.75,15.62-1.85,23.47,1,8.83.54,17.63.77,26.44a24.66,24.66,0,0,0,.19,4.48c1.73,7.91,2,8,9.39,4.8,3.44-1.52,6.85-2.69,10.35-.23,1.12.78,2.18.39,3.32.06a40.44,40.44,0,0,1,19.78-.68c10,2.08,19.86.88,29.79-.29,6.94-.81,13.91-1.57,20.9-.55C556.57,292.6,561.14,289.53,567.3,291.42Z"/>
        <path d="M300.16,325.5c-1-6.4,2.83-11.37,4.85-16.81,6.13-16.52,14.05-32.46,16.58-50.17,1.21-8.5,2.3-17,3.45-25.53.22-1.64.15-3.42.77-4.91,6.12-14.81,4.74-30.93,8.14-46.22,2-9,2.13-18.28,5.73-27,1-2.44.86-5.43.72-8.32-.48-9.54.18-19,5-28.1,5.69,29.42,11,58.89,20.83,87.2S382.4,263.1,393.5,290.9c-3-1-3.81-3.29-4.68-5.26-4.32-9.69-10-18.67-13.1-29.05-2.06-6.94-6.74-13.1-10.27-19.61-5.53-10.21-12.46-19.65-16.82-30.51-1-2.54-1.87-5.16-3.06-8.47-3.1,11.51-7.62,22.12-8.49,33-1.36,17-9.51,31.47-14.9,46.91-3.22,9.22-6.35,18.35-8.86,27.81C311.28,313.4,308.75,321.65,300.16,325.5Z"/>
        <path d="M619.14,135c-.58,10.65,1.73,20.92,3.83,31.27,3.56,17.54,7,35.16,13.19,51.93,7.62,20.75,13.27,42,18.32,63.41,1.94,8.22,2.76,16.7,4.12,25.2-2.91-.14-3.44-2.52-4.36-4.27-6.71-12.83-9.07-27.2-14.22-40.58-5-13.11-8.55-26.91-15.16-39.31a241.75,241.75,0,0,1-13.34-29.66c-2.52,2.07-2,5.17-2.16,7.34-.59,11.64-5,22.28-7.73,33.36-4.44,18.2-12.59,35.24-17,53.41-3.71,15.41-8.35,30.74-8.58,46.81,0,1.77-.79,3.17-1.31,4.79-1.57-.62-1.77-1.9-1.64-3.18,1.12-11,1-22.19,3.27-33.12A10.74,10.74,0,0,0,577,299c-2.3-16.6,4.16-31.48,9-46.67a284.56,284.56,0,0,0,11-46.61c.09-.64.53-1.29.47-1.9-1.23-12.2,5.14-22.11,9.39-32.77,4.6-11.53,5.09-24.32,10.1-35.81.46-1,.73-2.15,1.09-3.23C619.67,132.55,618.52,134.05,619.14,135Z"/>
        <path d="M967,165.92c-10-1.5-20.38-.06-30.26-3.62-3.07-1.1-6.91-.45-10.33-.07a16.91,16.91,0,0,1-7.33-.43l-.13-2.09c6-1.76,12.06-2.91,18.48-2.37,10.64.89,20.55-2.58,30.61-5.59,12.4-3.71,25.2-5.72,38.23-4.79,5.22.38,9.44,4,15,4.59,11.18,1.22,22.22.48,33.22-.68,9.09-1,11.58-1.28,18.26,3.82-6,4.38-12.82,5-19.71,3.88a28.71,28.71,0,0,0-8.31-.31c-9.87,1.15-19.66,3.18-29.68,2.66-1.09-.06-2.31-.4-3.23.74-6,7.48-13.08,14.23-15.38,24.14-1.26,5.4.36,10.6.87,15.78,1.26,12.83,1.6,25.79,2.15,38.56a285.12,285.12,0,0,1-1.08,43.19,90.26,90.26,0,0,0,.27,19.36,97.58,97.58,0,0,1-.73,28c-3-4.54-2.06-9.71-2.63-14.5-2.46-20.33-4-40.76-6.28-61.11-1.68-15-2.91-30-.89-45.1,1.47-11-2.42-21.23-5.2-31.63-1.15-4.29-3.24-8.15-4.43-12.37Z"/>
        <path d="M1223.45,129.85a54.05,54.05,0,0,1-2.46-17c0-6.95-3.29-12.51-7.93-17.52-2.68-2.89-4.76-6.23-5.19-10.42-.16-1.49-.8-3.46-2.59-3.94-4.82-1.29-5.92-5.54-8.24-9.12a51.28,51.28,0,0,1-7.5-19.34c-1.22-6.77,0-12.8,4.11-17.59,4.4-5.19,7.71-11,11.68-16.43,4.32-5.89,9.55-9.59,17.21-7.29,3.41,1,6.5,0,9.72-.68,4.19-.85,7.71.86,8.54,4.81,1.26,6,4.68,11,8.06,15.3,11,14,6,34.5-8.34,41.14-1.76.81-3.54,1.92-4.09,3.43-3.11,8.66-8.37,16.39-8.66,26.29C1227.49,111,1225,120.4,1223.45,129.85Zm-1.09-57.15c1.37-1.22,4.26,2.16,5.63-1,1.89-4.44,6-6.46,9.38-9.26,8-6.48,9.85-10.64,6-21.28-2.2-6-7.24-8.32-11.54-12-6-5.18-11.67-5.26-18.25-3.16-7.31,2.34-9.77,10-15.34,14.26-.27.2-.24,1-.13,1.44,2.1,8.09,1,16.93,8.34,23.68C1211.11,69.58,1215.5,72.62,1222.36,72.7Z"/>
        <path d="M863.06,137.87c5.43,6,8.32,12.93,10.3,20.43,3.77,14.26,9.15,28,13,42.31,3.19,11.64,4.21,22.46-.28,33.72-2.21,5.54-2,11.52-2.7,17.34a124.4,124.4,0,0,0,1.23,40.78c1.23,6.05,2.73,12.12,3.49,18.31.34,2.81,1,5.76,3.25,8a5.11,5.11,0,0,1,1.59,4.53c-.93,4.12-.7,8.31-.62,13.84a27.26,27.26,0,0,1-4.42-8.85c-4.6-17.06-11.2-33.45-17.18-50.05-2.59-7.18-4.26-14.69-6.29-22.06-.53-1.9-1-3.78.37-5.67,6.91-9.6,9.43-20.54,11.54-32.09,1.85-10.11-1.75-18.68-3.62-27.81-3-14.83-6.54-29.56-9.63-44.37C862.58,143.58,863.06,140.67,863.06,137.87Z"/>
      </g>
    </g>
  </g>
</svg>
